<svg width="41" height="40" viewBox="0 0 41 40" fill="none" xmlns="http://www.w3.org/2000/svg">
<rect width="40" height="40" transform="translate(0.481445)" fill="white"/>
<path d="M14.7294 9.00808L22.8112 16.5438C23.0798 16.805 23.5117 16.8406 23.6957 16.6269L28.443 10.9877L29.3482 9.89402L32.4898 6.14101C32.8 5.76111 33.6636 6.21521 33.5909 6.7168L32.7005 11.8722L32.4423 13.3517L29.5693 29.7246C29.4996 30.1267 28.8303 30.1104 28.5186 29.683L13.8835 9.4325C13.4725 8.88491 14.2041 8.51391 14.7294 9.00956V9.00808Z" fill="#FF2E00"/>
<path d="M26.2345 30.9919L18.1527 23.4562C17.8841 23.195 17.4523 23.1594 17.2682 23.3731L12.521 29.0123L11.6142 30.106L8.47264 33.859C8.161 34.2389 7.29881 33.7848 7.37152 33.2832L8.26191 28.1278L8.52013 26.6483L11.3931 10.2754C11.4629 9.87326 12.1322 9.88959 12.4438 10.317L27.0789 30.5675C27.49 31.1151 26.7584 31.4861 26.2315 30.9904L26.2345 30.9919Z" fill="#FF2E00"/>
</svg>
