<svg width="251" height="28" viewBox="0 0 251 28" fill="none" xmlns="http://www.w3.org/2000/svg">
<path d="M15.8342 8.30149C15.0699 7.94682 13.9703 7.76874 12.5323 7.76874C11.0943 7.76874 10.008 7.91417 9.37881 8.20355C8.7496 8.49441 8.435 8.91883 8.435 9.48126C8.435 9.93091 8.62346 10.2574 9.0004 10.4637C9.37733 10.6699 10.0243 10.8198 10.9415 10.9133L18.7843 11.587C21.1558 11.7933 22.9395 12.3825 24.1341 13.356C25.3287 14.3295 25.9268 15.7986 25.9268 17.7634C25.9268 19.6154 25.446 21.0475 24.4843 22.0581C23.5227 23.0687 22.1129 23.7661 20.2535 24.149C18.394 24.5319 15.9366 24.7248 12.8825 24.7248C9.82846 24.7248 7.5817 24.5185 5.76678 24.1075C3.95186 23.6964 2.55543 22.9559 1.576 21.8904C0.596564 20.8234 0.0712315 19.3172 0 17.3716H8.08477C8.28215 18.4386 8.78077 19.1732 9.58064 19.5754C10.3805 19.9775 11.5707 20.1793 13.1511 20.1793C14.7316 20.1793 15.9306 20.025 16.6415 19.7163C17.3508 19.4077 17.7055 18.9254 17.7055 18.2709C17.7055 17.7278 17.4992 17.336 17.0852 17.0926C16.6711 16.8493 16.0523 16.6905 15.2257 16.6148L7.67965 15.8565C5.29042 15.6131 3.49331 15.0418 2.2898 14.144C1.08628 13.2461 0.483781 11.8141 0.483781 9.8493C0.483781 8.18426 0.964593 6.86944 1.92622 5.90485C2.88784 4.94174 4.26202 4.26207 6.05023 3.8703C7.83843 3.47704 10.0793 3.28116 12.7742 3.28116C15.4691 3.28116 17.6788 3.48298 19.4581 3.88514C21.2374 4.2873 22.6249 4.98478 23.6221 5.97608C24.6194 6.96887 25.1447 8.32524 25.1981 10.0467H17.1935C17.0496 9.24234 16.5955 8.66211 15.8327 8.30595L15.8342 8.30149Z" fill="white"/>
<path d="M46.0069 24.0214L42.8801 11.8675H42.6916L39.5916 24.0214H31.075L25.2266 3.9801H32.7192L35.7644 16.3032H35.9528L39.0796 3.9801H46.5188L49.6456 16.3032H49.8341L52.9059 3.9801H60.3452L54.3884 24.0214H46.0069Z" fill="white"/>
<path d="M67.9994 11.5856H82.2576V15.9367H67.9994V19.1643H83.1732V24.0199H61.0454V3.97867H82.9031V8.72298H67.9994V11.5856Z" fill="white"/>
<path d="M91.9598 11.5856H106.218V15.9367H91.9598V19.1643H107.134V24.0199H85.0059V3.97867H106.864V8.72298H91.9598V11.5856Z" fill="white"/>
<path d="M131.658 5.67779C132.879 6.81007 133.491 8.56414 133.491 10.9415C133.491 13.3188 132.879 15.0922 131.658 16.2052C130.435 17.3182 128.415 17.8747 125.594 17.8747H115.919V24.0214H108.965V3.9801H125.594C128.415 3.9801 130.437 4.54699 131.658 5.67779ZM125.865 11.1092C125.865 10.3984 125.676 9.87451 125.299 9.53764C124.922 9.20078 124.337 9.03309 123.547 9.03309H115.919V13.1868H123.547C125.091 13.1868 125.865 12.4952 125.865 11.1092Z" fill="white"/>
<path d="M177.007 9.25573V12.7639H191.319V17.6477H177.007V24.0199H170.053V3.97867H192.019V9.25573H177.007Z" fill="white"/>
<path d="M193.69 24.0214V3.9801H200.644V18.4638H215.683V24.0214H193.69Z" fill="white"/>
<path d="M217.327 24.0214V3.9801H224.281V24.0214H217.327Z" fill="white"/>
<path d="M249.131 5.67779C250.352 6.81007 250.963 8.56414 250.963 10.9415C250.963 13.3188 250.352 15.0922 249.131 16.2052C247.908 17.3182 245.887 17.8747 243.067 17.8747H233.391V24.0214H226.438V3.9801H243.067C245.888 3.9801 247.909 4.54699 249.131 5.67779ZM243.336 11.1092C243.336 10.3984 243.147 9.87451 242.77 9.53764C242.393 9.20078 241.809 9.03309 241.018 9.03309H233.39V13.1868H241.018C242.563 13.1868 243.336 12.4952 243.336 11.1092Z" fill="white"/>
<path d="M145.844 3.00808L153.925 10.5438C154.194 10.805 154.626 10.8406 154.81 10.6269L159.557 4.98772L160.462 3.89402L163.604 0.141012C163.914 -0.238889 164.778 0.21521 164.705 0.716798L163.815 5.87218L163.557 7.35172L160.684 23.7246C160.614 24.1267 159.945 24.1104 159.633 23.683L144.998 3.4325C144.587 2.88491 145.318 2.51391 145.844 3.00956V3.00808Z" fill="#FF2E00"/>
<path d="M157.349 24.9919L149.267 17.4562C148.998 17.195 148.567 17.1594 148.383 17.3731L143.635 23.0123L142.728 24.106L139.587 27.859C139.275 28.2389 138.413 27.7848 138.486 27.2832L139.376 22.1278L139.634 20.6483L142.507 4.27543C142.577 3.87326 143.246 3.88959 143.558 4.31698L158.193 24.5675C158.604 25.1151 157.873 25.4861 157.346 24.9904L157.349 24.9919Z" fill="#FF2E00"/>
</svg>
