<svg width="64" height="64" viewBox="0 0 64 64" fill="none" xmlns="http://www.w3.org/2000/svg">
<defs>
    <linearGradient id="bgGradient" x1="0" y1="0" x2="64" y2="64" gradientUnits="userSpaceOnUse">
        <stop offset="0%" style="stop-color:#EA580C;stop-opacity:1" />
        <stop offset="100%" style="stop-color:#DC2626;stop-opacity:1" />
    </linearGradient>
</defs>
<!-- Rounded square background with gradient -->
<rect width="64" height="64" rx="12" fill="url(#bgGradient)"/>
<!-- N' icon in white, properly centered and scaled -->
<g transform="translate(18, 18)">
    <path d="M5.844 1.008L11.925 6.544C12.194 6.805 12.626 6.841 12.81 6.627L16.557 2.988L17.462 1.894L19.604 0.141C19.914 -0.239 20.778 0.215 20.705 0.717L19.815 4.872L19.557 6.352L17.684 15.725C17.614 16.127 16.945 16.11 16.633 15.683L4.998 1.433C4.587 0.885 5.318 0.514 5.844 1.01V1.008Z" fill="white"/>
    <path d="M17.349 16.992L11.267 11.456C10.998 11.195 10.567 11.159 10.383 11.373L6.635 15.012L5.728 16.106L3.587 17.859C3.275 18.239 2.413 17.785 2.486 17.283L3.376 13.128L3.634 11.648L5.507 2.275C5.577 1.873 6.246 1.890 6.558 2.317L18.193 16.567C18.604 17.115 17.873 17.486 17.346 16.990L17.349 16.992Z" fill="white"/>
</g>
</svg>
